<svg xmlns="http://www.w3.org/2000/svg" viewBox="0 0 344 120" width="344" height="120">

  <!-- Tile 1: Ti -->
  <rect x="10" y="14" width="90" height="92" rx="4" fill="none" stroke="#1d2d35" stroke-width="1.5"/>
  <path d="M365 590V0H235V590H25V698H575V590Z" transform="matrix(0.042, 0, 0, -0.042, 29.80, 74.0)" fill="#1d2d35"/>
  <path d="M332 596Q287 596 268.5 615.0Q250 634 250 661V685Q250 712 268.5 731.0Q287 750 332 750Q377 750 395.5 731.0Q414 712 414 685V661Q414 634 395.5 615.0Q377 596 332 596ZM98 101H268V415H98V516H396V101H554V0H98Z" transform="matrix(0.042, 0, 0, -0.042, 55.00, 74.0)" fill="#1d2d35"/>

  <!-- Tile 2: Gr -->
  <rect x="108" y="14" width="90" height="92" rx="4" fill="none" stroke="#1d2d35" stroke-width="1.5"/>
  <path d="M421 97H413Q404 76 391.0 56.0Q378 36 359.0 21.0Q340 6 314.5 -3.0Q289 -12 256 -12Q150 -12 95.5 81.5Q41 175 41 344Q41 522 105.0 616.0Q169 710 302 710Q354 710 393.5 696.0Q433 682 461.5 657.0Q490 632 508.5 597.5Q527 563 538 523L418 489Q411 511 402.5 532.0Q394 553 380.5 568.5Q367 584 348.0 593.5Q329 603 301 603Q236 603 208.0 551.0Q180 499 180 409V297Q180 252 186.5 214.5Q193 177 208.0 150.0Q223 123 247.0 108.5Q271 94 307 94Q363 94 392.0 127.5Q421 161 421 213V270H294V365H538V0H421Z" transform="matrix(0.042, 0, 0, -0.042, 127.80, 74.0)" fill="#1d2d35"/>
  <path d="M75 101H203V415H75V516H331V375H339Q346 402 358.5 427.5Q371 453 390.5 472.5Q410 492 438.0 504.0Q466 516 505 516H561V396H455Q397 396 364.0 362.0Q331 328 331 275V101H510V0H75Z" transform="matrix(0.042, 0, 0, -0.042, 153.00, 74.0)" fill="#1d2d35"/>

  <!-- Tile 3: I -->
  <rect x="206" y="14" width="60" height="92" rx="4" fill="none" stroke="#1d2d35" stroke-width="1.5"/>
  <path d="M78 0V98H235V600H78V698H522V600H365V98H522V0Z" transform="matrix(0.042, 0, 0, -0.042, 223.40, 74.0)" fill="#1d2d35"/>

  <!-- Tile 4: S -->
  <rect x="274" y="14" width="60" height="92" rx="4" fill="none" stroke="#1d2d35" stroke-width="1.5"/>
  <path d="M292 -12Q202 -12 138.5 19.0Q75 50 35 101L114 183Q153 138 198.5 116.5Q244 95 296 95Q356 95 388.0 122.0Q420 149 420 200Q420 242 396.0 263.5Q372 285 315 294L241 306Q144 323 103.0 376.5Q62 430 62 503Q62 603 127.0 656.5Q192 710 307 710Q389 710 448.5 684.0Q508 658 544 613L467 531Q439 564 400.0 583.5Q361 603 308 603Q194 603 194 509Q194 469 218.0 448.0Q242 427 300 417L373 404Q464 387 508.0 337.0Q552 287 552 209Q552 160 535.0 119.5Q518 79 485.0 49.5Q452 20 403.5 4.0Q355 -12 292 -12Z" transform="matrix(0.042, 0, 0, -0.042, 291.40, 74.0)" fill="#1d2d35"/>

</svg>
